<svg width="149" height="32" viewBox="0 0 149 32" fill="none" xmlns="http://www.w3.org/2000/svg">
<circle cx="16" cy="16" r="16" fill="#0F172A"/>
<path d="M8.856 9.968L6.96 9.656V8.168H12.408L19.56 18.968L20.904 21.704V9.968L18.84 9.656V8.168H24.792V9.656L22.944 9.968V26H20.04L12.576 14.648L10.896 11.48V24.32L13.32 24.56V26H6.96V24.56L8.856 24.32V9.968Z" fill="white"/>
<path d="M45.856 9.968L43.96 9.656V8.168H49.408L56.56 18.968L57.904 21.704V9.968L55.84 9.656V8.168H61.792V9.656L59.944 9.968V26H57.04L49.576 14.648L47.896 11.48V24.32L50.32 24.56V26H43.96V24.56L45.856 24.32V9.968ZM62.1456 19.352C62.1456 17.848 62.4416 16.568 63.0336 15.512C63.6416 14.456 64.4496 13.664 65.4576 13.136C66.4656 12.592 67.5616 12.32 68.7456 12.32C70.7616 12.32 72.3136 12.944 73.4016 14.192C74.5056 15.424 75.0576 17.104 75.0576 19.232C75.0576 20.752 74.7536 22.048 74.1456 23.12C73.5536 24.176 72.7536 24.968 71.7456 25.496C70.7536 26.008 69.6576 26.264 68.4576 26.264C66.4576 26.264 64.9056 25.648 63.8016 24.416C62.6976 23.168 62.1456 21.48 62.1456 19.352ZM68.6496 24.704C70.4576 24.704 71.3616 22.96 71.3616 19.472C71.3616 17.648 71.1456 16.264 70.7136 15.32C70.2816 14.36 69.5776 13.88 68.6016 13.88C66.7456 13.88 65.8176 15.624 65.8176 19.112C65.8176 20.936 66.0416 22.328 66.4896 23.288C66.9536 24.232 67.6736 24.704 68.6496 24.704ZM76.0394 19.352C76.0394 17.848 76.3354 16.568 76.9274 15.512C77.5354 14.456 78.3434 13.664 79.3514 13.136C80.3594 12.592 81.4554 12.32 82.6394 12.32C84.6554 12.32 86.2074 12.944 87.2954 14.192C88.3994 15.424 88.9514 17.104 88.9514 19.232C88.9514 20.752 88.6474 22.048 88.0394 23.12C87.4474 24.176 86.6474 24.968 85.6394 25.496C84.6474 26.008 83.5514 26.264 82.3514 26.264C80.3514 26.264 78.7994 25.648 77.6954 24.416C76.5914 23.168 76.0394 21.48 76.0394 19.352ZM82.5434 24.704C84.3514 24.704 85.2554 22.96 85.2554 19.472C85.2554 17.648 85.0394 16.264 84.6074 15.32C84.1754 14.36 83.4714 13.88 82.4954 13.88C80.6394 13.88 79.7114 15.624 79.7114 19.112C79.7114 20.936 79.9354 22.328 80.3834 23.288C80.8474 24.232 81.5674 24.704 82.5434 24.704ZM88.8531 6.848L93.2451 6.32H93.2931L93.9651 6.776V13.856C94.3971 13.424 94.9251 13.064 95.5491 12.776C96.1891 12.472 96.8771 12.32 97.6131 12.32C99.1491 12.32 100.397 12.864 101.357 13.952C102.333 15.024 102.821 16.672 102.821 18.896C102.821 20.272 102.533 21.52 101.957 22.64C101.381 23.76 100.549 24.648 99.4611 25.304C98.3891 25.944 97.1411 26.264 95.7171 26.264C94.4531 26.264 93.3571 26.16 92.4291 25.952C91.5011 25.728 90.9091 25.528 90.6531 25.352V8.384L88.8531 8.096V6.848ZM96.3411 14.432C95.8611 14.432 95.4051 14.544 94.9731 14.768C94.5571 14.976 94.2211 15.216 93.9651 15.488V24.248C94.0611 24.424 94.2851 24.568 94.6371 24.68C94.9891 24.792 95.3891 24.848 95.8371 24.848C96.8611 24.848 97.6771 24.376 98.2851 23.432C98.9091 22.472 99.2211 21.056 99.2211 19.184C99.2211 17.568 98.9571 16.376 98.4291 15.608C97.9011 14.824 97.2051 14.432 96.3411 14.432ZM106.425 10.472C105.849 10.472 105.393 10.304 105.057 9.968C104.721 9.632 104.553 9.2 104.553 8.672C104.553 8.064 104.745 7.56 105.129 7.16C105.513 6.76 106.025 6.56 106.665 6.56C107.305 6.56 107.793 6.736 108.129 7.088C108.465 7.424 108.633 7.848 108.633 8.36C108.633 9 108.441 9.512 108.057 9.896C107.673 10.28 107.137 10.472 106.449 10.472H106.425ZM105.153 14.936L103.449 14.48V12.872L107.841 12.344H107.889L108.561 12.824V24.368L110.169 24.56V26H103.473V24.56L105.153 24.344V14.936ZM121.513 26.24C120.985 26.24 120.601 26.128 120.361 25.904C120.121 25.68 120.001 25.344 120.001 24.896V24.248C119.569 24.776 118.961 25.248 118.177 25.664C117.393 26.064 116.609 26.264 115.825 26.264C114.289 26.264 113.193 25.872 112.537 25.088C111.881 24.288 111.553 22.976 111.553 21.152V14.384L110.353 14.048V12.68L114.433 12.368H114.457L114.937 12.704V21.152C114.937 22.32 115.081 23.136 115.369 23.6C115.657 24.064 116.193 24.296 116.977 24.296C117.921 24.296 118.801 23.928 119.617 23.192V14.384L118.009 14.024V12.68L122.353 12.368H122.401L122.977 12.704V24.512H124.321L124.297 25.88C124.233 25.896 123.937 25.96 123.409 26.072C122.881 26.184 122.249 26.24 121.513 26.24ZM124.818 24.56L126.162 24.344V14.936L124.626 14.504V12.848L128.61 12.344L128.898 12.536L129.258 13.328V14.336C129.786 13.824 130.538 13.376 131.514 12.992C132.506 12.592 133.362 12.392 134.082 12.392C134.946 12.392 135.642 12.536 136.17 12.824C136.714 13.112 137.122 13.56 137.394 14.168C137.922 13.688 138.618 13.272 139.482 12.92C140.346 12.568 141.194 12.392 142.026 12.392C143.45 12.392 144.458 12.808 145.05 13.64C145.642 14.472 145.938 15.832 145.938 17.72V24.344L147.498 24.56V26H141.282V24.56L142.53 24.344V17.816C142.53 16.568 142.378 15.696 142.074 15.2C141.786 14.688 141.226 14.432 140.394 14.432C139.946 14.432 139.482 14.536 139.002 14.744C138.538 14.936 138.122 15.176 137.754 15.464C137.866 16.072 137.922 16.832 137.922 17.744V24.344L139.41 24.56V26H133.146V24.56L134.466 24.344V17.744C134.466 16.912 134.41 16.264 134.298 15.8C134.202 15.32 134.01 14.976 133.722 14.768C133.434 14.544 133.018 14.432 132.474 14.432C131.962 14.432 131.45 14.552 130.938 14.792C130.442 15.016 129.994 15.288 129.594 15.608V24.344L131.01 24.56V26H124.818V24.56Z" fill="#0F172A"/>
</svg>
